<?xml version="1.0" encoding="UTF-8" standalone="no"?>
<!DOCTYPE svg PUBLIC "-//W3C//DTD SVG 1.1//EN" "http://www.w3.org/Graphics/SVG/1.1/DTD/svg11.dtd">
<svg width="100%" height="100%" viewBox="0 0 3184 1270" version="1.1" xmlns="http://www.w3.org/2000/svg" xmlns:xlink="http://www.w3.org/1999/xlink" xml:space="preserve" xmlns:serif="http://www.serif.com/" style="fill-rule:evenodd;clip-rule:evenodd;stroke-linecap:round;stroke-linejoin:round;stroke-miterlimit:1;">
    <g transform="matrix(1,0,0,1,-162.112285,-113.570706)">
        <g transform="matrix(0.494948,0,0,0.494867,43.427261,-98.600697)">
            <g id="NS">
                <g transform="matrix(4.166667,0,0,4.166667,2812.5,695.833333)">
                    <path d="M0,0L93,0C105.187,14.403 330.614,290.137 333,293C333.33,196.31 333.66,99.62 334,0L445,0L445,486L352,486C349.03,482.37 114.761,197.221 112,194C111.67,290.36 111.34,386.72 111,486L0,486L0,0Z" style="fill:white;"/>
                </g>
                <g transform="matrix(6.974162,0,0,6.958484,-31.094101,-7.034035)">
                    <path d="M960.927,301.48C965.72,364.507 901.679,393.979 863.451,396.211C771.631,401.572 744.16,376.899 719.832,364.279C740.473,315.768 742.201,312.46 742.201,312.46C742.201,312.46 760.299,325.69 788.834,334.862C810.349,341.777 839.298,346.386 862.461,341.276C894.951,334.109 917.331,299.952 857.462,281.639C821.161,270.535 734.544,263.289 725.904,201.451C712.739,107.226 831.954,71.181 933.326,113.884C938.273,115.967 948.135,120.261 948.135,120.261C948.135,120.261 946.296,124.641 927.566,172.722C923.746,171.148 877.585,143.757 824.561,152.43C789.723,158.129 779.477,195.468 811.456,207.601C860.082,226.051 959.277,229.647 960.927,301.48Z" style="fill:white;fill-opacity:0.97;"/>
                </g>
                <path d="M1161.707,489.42C1195.195,503.19 1228.772,516.737 1262.342,530.306C1281.309,537.973 1300.274,545.646 1319.238,553.32L1330.474,557.867C1363.817,571.361 1397.146,584.892 1430.469,598.438C1457.296,609.343 1484.128,620.238 1510.962,631.126C1547.522,645.962 1584.087,660.785 1620.653,675.605C1643.067,684.689 1665.479,693.776 1687.891,702.865C1773.652,737.642 1859.429,772.378 1945.216,807.093C1972.707,818.218 2000.196,829.348 2027.686,840.479L2063.459,854.962L2086.247,864.19C2106.185,872.265 2126.126,880.333 2146.071,888.391C2153.219,891.283 2160.361,894.189 2167.503,897.097C2184.598,904.024 2303.761,951.192 2332.812,963.281C2374.495,980.568 2374.495,980.568 2416.504,997.038L2427.867,1001.397C2432.799,1003.278 2437.741,1005.137 2442.693,1006.969C2444.632,1007.687 2446.574,1008.4 2448.517,1009.109C2475.514,1019.498 2496.396,1033.802 2512.24,1058.333C2535.207,1124.346 2497.829,1197.762 2472.44,1257.921C2468.59,1267.045 2464.777,1276.184 2460.972,1285.326C2456.998,1294.875 2453.022,1304.423 2449.036,1313.967C2437.565,1341.435 2426.32,1368.99 2415.154,1396.582C2409.666,1410.143 2404.166,1423.7 2398.665,1437.256L2395.12,1445.993C2377.371,1489.718 2359.508,1533.396 2341.667,1577.083C2318.279,1634.36 2294.893,1691.637 2271.615,1748.958L2268.397,1756.881C2256.107,1787.149 2243.837,1817.425 2231.576,1847.705L2216.406,1885.156L2212.551,1894.673C2187.238,1957.149 2161.762,2019.559 2136.27,2081.962C2113.332,2138.114 2090.461,2194.293 2067.708,2250.521C2045.111,2306.361 2022.314,2362.117 1999.421,2417.836C1981.309,2461.917 1963.261,2506.022 1945.343,2550.182C1941.975,2558.476 1938.601,2566.767 1935.225,2575.057C1925.37,2599.277 1915.58,2623.519 1906.006,2647.852C1859.803,2764.663 1859.803,2764.663 1807.536,2792.334C1767.947,2808.239 1729.82,2787.946 1692.448,2772.917L1677.494,2766.974C1609.725,2739.974 1542.295,2712.115 1474.808,2684.421C1441.392,2670.711 1407.947,2657.074 1374.479,2643.49L1366.622,2640.3C1310.481,2617.51 1254.31,2594.794 1198.142,2572.069C1154.303,2554.331 1110.476,2536.562 1066.667,2518.75C1015.732,2498.041 964.772,2477.395 913.802,2456.771C835.875,2425.238 757.96,2393.678 680.061,2362.076L652.02,2350.704C636.768,2344.519 621.518,2338.331 606.268,2332.141L589.419,2325.306C564.311,2315.123 539.22,2304.913 514.242,2294.417C491.528,2284.917 468.674,2275.789 445.801,2266.683C434.283,2262.081 422.765,2257.477 411.249,2252.872C403.392,2249.738 395.531,2246.616 387.665,2243.505C270.704,2197.209 270.704,2197.209 245.833,2154.167C236.481,2126.11 238.055,2092.677 250.098,2065.609C262.058,2044.224 276.138,2028.634 300,2020.833C333.64,2021.848 361.141,2033.179 391.927,2046.094L406.47,2052.059C418.22,2056.886 429.951,2061.756 441.667,2066.667L443.795,2059.972C451.929,2034.92 461.381,2010.606 471.419,1986.263L476.458,1973.956C481.864,1960.758 487.286,1947.567 492.708,1934.375C498.378,1920.541 504.044,1906.705 509.709,1892.869C513.515,1883.575 517.322,1874.282 521.13,1864.99C537.887,1824.097 554.515,1783.153 571.094,1742.188L586.214,1704.85L589.81,1695.971C602.615,1664.361 615.493,1632.781 628.375,1601.202C639.018,1575.099 649.628,1548.982 660.205,1522.852C688.211,1453.668 716.352,1384.545 744.739,1315.517C768.418,1257.917 791.803,1200.202 815.104,1142.448C838.499,1084.466 862.003,1026.535 885.888,968.753C915.103,898.066 943.892,827.205 972.71,756.355L978.536,742.037C982.133,733.199 985.727,724.36 989.32,715.519C1001.059,686.67 1012.98,657.9 1025,629.167L1017.649,626.803C992.478,618.666 967.995,609.161 943.49,599.219L931.958,594.572C922.69,590.836 913.427,587.089 904.167,583.333C901.839,583.002 896.574,577.174 895.833,575C882.658,553.095 884.748,528.845 887.5,504.167C898.246,469.944 915.988,451.34 946.875,434.115C1016.529,412.058 1098.508,463.402 1161.707,489.42ZM1058.333,645.833C1055.033,652.434 1052.055,659.197 1049.198,666.001L1042.904,681.283C1039.275,690.087 1035.649,698.892 1032.026,707.699L1028.125,717.188C1008.389,765.144 988.755,813.139 969.271,861.198C950.659,907.113 931.922,952.974 913.092,998.8C888.281,1059.182 863.582,1119.607 839.105,1180.125L831.452,1199.053L827.653,1208.447C818.696,1230.596 809.692,1252.725 800.621,1274.828C796.769,1284.212 792.925,1293.6 789.082,1302.988C786.647,1308.937 784.21,1314.886 781.771,1320.833C778.338,1329.148 774.905,1337.463 771.498,1345.788L768.392,1353.385L767.89,1354.606C761.73,1369.608 757.188,1381.786 753.167,1398C762.881,1412.423 774.881,1417.423 797.333,1444.667C839.891,1493.057 877.136,1522.624 942.723,1528.599C1020.419,1530.49 1088.859,1492.997 1144,1449.833C1147.569,1447.04 1158.333,1437.5 1166.667,1429.427C1192.501,1402.835 1219.911,1375.688 1254.051,1360.223C1294.804,1345.052 1322.245,1345.608 1362.323,1361.323C1383.905,1370.026 1448.47,1402.427 1458.333,1410.5C1493.993,1426.155 1531.836,1434.301 1569.833,1423C1603.66,1409.782 1634.457,1391.551 1650.167,1358.167C1653.107,1351.918 1656.675,1341.627 1656.743,1331.458C1656.836,1317.467 1652.091,1302.815 1646.175,1291.146L1641.667,1283.333C1623.808,1251.585 1601.895,1223.8 1578.818,1195.783C1553.443,1165.003 1528.686,1133.821 1507.031,1100.26C1483.109,1058.812 1471.665,1013.553 1483.333,966.667C1502.026,923.573 1524.357,903.126 1564.323,880.208C1572.18,875.928 1579.954,871.474 1587.5,866.667C1596.428,863.469 1594.093,860.997 1587.5,858.333C1537.837,836.577 1088.944,655.629 1058.333,645.833ZM1622.432,874.815C1619.066,873.525 1601.162,881.831 1581.518,892.805C1566.989,900.922 1549.904,910.315 1536.5,925C1535.343,927.415 1531.077,930.366 1527.405,934.189C1522.562,939.231 1519.013,945.051 1516.667,945.833C1507.552,959.375 1507.552,959.375 1503.32,968.424C1494.628,996.545 1495.44,1030.516 1507.699,1057.52L1512.5,1066.667C1533.85,1108.724 1559.896,1144.398 1590.013,1180.534C1606.302,1200.029 1622.339,1219.592 1637.093,1240.283C1652.799,1263.825 1668.23,1290.82 1673.214,1317.19C1676.299,1333.513 1673.53,1352.064 1669.917,1361.979C1658.568,1393.123 1627.661,1418.416 1592.367,1435.921C1550.264,1454.247 1510.486,1452.696 1467.529,1436.751C1458.103,1433.248 1431.639,1418.615 1423.833,1414.833C1421,1410.583 1348.949,1375.751 1314.477,1371.368C1265.902,1370.886 1233.89,1392.888 1200,1425C1139.628,1497.76 1031.481,1553.207 952.865,1551.302C931.424,1550.095 909.327,1545.74 887.803,1538.189C856.658,1527.262 826.713,1509.641 801.693,1485.173C796.999,1480.356 792.255,1475.589 787.5,1470.833C784.667,1470.833 779.167,1462.5 772.135,1454.948L762.5,1445.833L741.667,1425C733.08,1441.572 725.504,1458.318 718.443,1475.573L714.469,1485.368C709.955,1496.424 705.443,1507.482 700.943,1518.545C697.676,1526.579 694.405,1534.611 691.13,1542.642C684.18,1559.677 677.231,1576.712 670.291,1593.75C658.079,1623.737 645.851,1653.717 633.61,1683.691C625.023,1704.718 616.435,1725.743 607.859,1746.774C591.688,1786.441 575.522,1826.11 559.239,1865.731C551.467,1884.631 543.701,1903.535 535.944,1922.442C532.211,1931.542 528.476,1940.641 524.74,1949.74C519.445,1962.572 514.15,1975.405 508.882,1988.249L504.02,2000.114C492.674,2027.479 483.027,2054.805 475,2083.333C527.197,2104.758 579.445,2126.057 631.728,2147.271L641.667,2151.302C684.056,2168.497 726.473,2185.62 768.966,2202.558C810.865,2219.251 852.686,2236.095 894.36,2253.339C958.822,2280.024 1023.483,2306.173 1088.281,2332.031C1154.412,2358.419 1220.5,2384.904 1286.497,2411.622C1340.269,2433.392 1394.029,2455.189 1447.856,2476.823C1453.258,2478.992 1458.661,2481.162 1464.062,2483.333C1493.86,2495.36 1523.556,2506.871 1554.167,2516.667C1585.058,2486.477 1616.578,2455.803 1642.448,2421.11C1665.735,2385.727 1686.986,2347.84 1679.167,2304.167C1665.46,2270.03 1665.46,2270.03 1585.955,2225.625C1565.597,2214.305 1545.539,2202.534 1525.521,2190.625C1511.35,2182.146 1497.111,2173.84 1482.654,2165.857C1479.642,2164.273 1465.435,2154.183 1462.796,2152.198C1455.532,2146.735 1437.13,2132.964 1434.896,2130.729C1417.257,2113.09 1391.437,2081.406 1383.333,2050C1378.94,2005.083 1383.099,1963.185 1407.422,1924.398L1412.5,1916.667C1416.926,1909.407 1421.447,1902.206 1426.042,1895.052C1439.365,1876.405 1452.052,1863.277 1475,1858.333C1492.813,1860.483 1503.969,1865.766 1517.448,1877.083C1521.432,1880.625 1536.166,1893.219 1540.167,1896.5C1570.91,1921.716 1586.2,1961.499 1662.725,1995.884C1697.03,2011.298 1737.187,2029.864 1776.094,2035.049C1827.636,2041.918 1875.23,2037.098 1897.721,2031.999L1908.333,2029.167C1971.618,2013.428 2026.881,1984.307 2077.333,1942.667C2080.006,1940.461 2110.16,1915.968 2112.728,1913.411L2120.833,1905.208L2128.939,1897.201L2136.719,1889.388C2144.375,1881.701 2163.917,1858.333 2166.667,1858.333C2204.629,1820.458 2204.629,1820.458 2264.111,1674.65C2270.368,1659.243 2276.625,1643.836 2282.957,1628.46C2287.144,1618.294 2291.309,1608.119 2295.462,1597.939L2301.4,1583.35C2308.843,1565.301 2316.457,1543.824 2321.727,1531.986C2325.496,1523.52 2328.321,1515.126 2331,1506.167C2314.313,1499.169 2287.253,1491.698 2274.137,1485.775C2271.911,1484.769 2267.367,1480.819 2265.038,1476.237C2261.69,1469.65 2262.168,1462.064 2266.667,1458.333C2281.321,1453.448 2286.953,1453.944 2301.562,1459.896C2317.734,1464.697 2327.391,1469.156 2343.833,1474.833C2348.346,1465.267 2358.492,1441.522 2362.333,1431.667C2356.167,1429.167 2254.703,1390.806 2220.667,1372.833C2218.901,1371.901 2213.974,1368.241 2213.166,1366.344C2212.566,1364.939 2211.388,1360.2 2212.662,1356.682C2215.634,1348.481 2221.667,1348.356 2224.667,1347C2238.536,1345.719 2257.207,1353.452 2279.15,1362.72C2310.738,1376.542 2342.119,1388.568 2375,1401C2386.748,1371.376 2398.574,1340.789 2410.817,1311.366L2414.469,1302.604C2419.452,1290.624 2424.434,1278.643 2429.427,1266.667C2447.712,1223.069 2467.194,1179.17 2479.167,1133.333C2481.635,1112.452 2486.945,1086.874 2473.307,1069.562C2471.049,1067.841 2468.858,1064.17 2466.667,1062.5C2458.333,1055.469 2458.333,1055.469 2445.833,1050C2425.227,1045.393 2409.902,1043.916 2389.76,1057.469C2372.178,1074.076 2363.748,1100.773 2360.876,1127.753L2359.961,1143.262L2358.988,1158.97L2358.333,1170.833C2286.819,1142.11 2239.263,1123.01 2199.638,1107.021C2120.98,1075.282 2073.576,1055.806 1932.072,997.67C1890.499,980.6 1641.593,882.16 1622.432,874.815ZM1482.715,1879.574C1462.397,1878.878 1462.397,1878.878 1433.366,1920.068C1405.949,1963.541 1396.395,2008.152 1405.859,2059.115C1414.576,2083.888 1441.218,2110.546 1460.449,2124.982C1463.736,2127.449 1492.801,2149.78 1506.743,2158.09L1514.323,2162.5C1529.723,2171.638 1545.193,2180.631 1560.803,2189.406C1601.6,2212.199 1646.083,2232.918 1679.167,2266.667C1696.679,2287.272 1700.876,2311.095 1700,2337.5C1690.191,2406.732 1632.584,2473.399 1580.68,2516.357L1575,2520.833C1579.167,2529.167 1579.167,2529.167 1588.332,2533.622L1600.553,2538.477L1614.294,2544.019C1624.294,2548.04 1634.263,2552.138 1644.202,2556.307C1654.558,2560.691 1664.919,2565.059 1675.293,2569.401C1680.578,2571.612 1685.863,2573.826 1691.146,2576.042C1699.166,2579.439 1707.187,2582.834 1715.223,2586.193L1722.884,2589.388C1736.855,2595.264 1749.303,2599.865 1764.195,2602.747L1775,2604.167C1771.356,2612.645 1771.356,2612.645 1764.925,2618.083C1745.94,2635.224 1732.929,2653.435 1721.257,2676.188C1713.069,2696.366 1716.51,2722.137 1720.312,2732.031C1729.417,2745.381 1741.347,2752.506 1764.833,2759.5C1778.803,2761.322 1791.156,2761.17 1802.946,2754.02C1818.432,2742.448 1841.539,2700.422 1857.983,2665.292C1870.008,2639.6 1878.005,2616.667 1879.167,2616.667C1883.187,2606.592 1887.22,2596.524 1891.301,2586.474L1895.236,2576.842L1899.767,2565.748C1903.098,2557.595 1906.429,2549.441 1909.759,2541.287L1915.104,2528.198C1940.714,2465.496 1966.342,2402.801 1991.813,2340.043C2050.932,2194.336 2110.455,2048.794 2170.203,1903.344C2172.625,1897.447 2179.625,1882.447 2182,1876.667C2177.792,1874.563 2138.748,1915.417 2124.356,1928.961C2041.382,2006.055 1933.363,2063.272 1817.041,2059.212L1804.167,2058.333C1797.298,2057.926 1777.578,2057.054 1755.234,2051.95C1737.787,2047.965 1717.959,2040.23 1706.525,2035.808C1681.015,2025.941 1641.783,2008.11 1622.171,1995.833C1578.56,1968.531 1564.975,1953.303 1562.775,1949.732C1560.414,1945.901 1554.312,1939.251 1547.919,1931.428C1541.784,1923.92 1533.297,1916.307 1529.264,1911.963L1518.229,1901.823C1506.316,1890.643 1498.487,1884.094 1482.715,1879.574ZM1033.057,476.986C1000.788,464.616 971.892,457.376 941.667,479.167C924.09,501.831 921.691,521.685 925,550C929.167,554.167 929.167,554.167 936.703,557.605L946.761,561.784L958.291,566.586L971.094,571.875C1044.944,602.499 1044.944,602.499 1194.024,662.741C1208.767,668.698 1223.51,674.657 1238.252,680.617L1249.479,685.156C1300.846,705.923 1352.17,726.787 1403.391,747.911L1412.24,751.562L1429.856,758.832L1438.49,762.395L1446.989,765.902C1517.968,795.192 1517.968,795.192 1667.637,855.752C1747.739,888.162 1827.932,920.364 1907.731,953.516C1964.97,977.302 2022.319,1000.746 2079.911,1023.664C2112.563,1036.654 2145.19,1049.697 2177.706,1063.024C2184.859,1065.958 2192.013,1068.889 2199.169,1071.817C2209.604,1076.086 2220.038,1080.356 2230.469,1084.635C2240.276,1088.691 2250.082,1092.747 2259.903,1096.768L2268.962,1100.472C2287.488,1108.204 2304.953,1114.139 2325,1116.667C2333.241,1090.569 2340.271,1060.269 2359.375,1040.104L2366.667,1033.333C2379.193,1026.22 2379.69,1020.663 2366.667,1016.667C2289.773,985.482 2212.875,954.311 2135.958,923.184C2079.394,900.294 2022.831,877.401 1966.279,854.48L1956.51,850.521C1918.524,835.124 1880.546,819.71 1842.595,804.226C1782.678,779.775 1722.685,755.515 1662.684,731.271C1610.017,709.991 1557.354,688.7 1504.714,667.354L1495.312,663.542C1473.553,654.718 1451.795,645.893 1430.036,637.067C1389.466,620.609 1348.895,604.152 1308.317,587.712C1290.397,580.452 1272.478,573.192 1254.563,565.922C1232.836,557.103 1211.109,548.288 1189.378,539.482C1180.679,535.957 1171.98,532.432 1163.281,528.906C1122.863,512.489 1082.472,495.99 1041.759,480.313L1033.057,476.986ZM304.167,2058.333C294.467,2064.84 286.568,2072.196 282.633,2083.431C273.846,2104.308 275.907,2130.989 283.854,2151.74C302.005,2171.705 302.005,2169.705 351.859,2190.213C359.278,2193.212 366.698,2196.213 374.106,2199.24C388.572,2205.162 403.049,2211.057 417.537,2216.923C427.791,2221.071 438.043,2225.22 448.294,2229.375C493.167,2247.568 538.056,2265.721 582.959,2283.838C626.169,2301.271 669.367,2318.734 712.556,2336.219L734.308,2345.026C826.805,2382.469 919.293,2419.933 1011.737,2457.507C1093.872,2490.892 1176.049,2524.173 1258.244,2557.409L1270.833,2562.5C1406.54,2617.376 1541.599,2674.895 1679.167,2725C1682.095,2699.721 1684.167,2674.765 1695.833,2651.823C1701.799,2641.57 1707.292,2631.459 1712.5,2620.833C1699.793,2614.287 1687.098,2608.164 1673.92,2602.617L1659.017,2596.696C1653.32,2594.424 1647.622,2592.154 1641.924,2589.883C1632.562,2586.171 1623.2,2582.458 1613.843,2578.732C1600.366,2573.361 1586.888,2567.991 1573.407,2562.628C1538.291,2548.663 1503.194,2534.653 1468.103,2520.625L1457.552,2516.406C1396.691,2492.076 1335.915,2467.545 1275.212,2442.822C1241.636,2429.145 1208.038,2415.524 1174.437,2401.909C1136.633,2386.592 1098.825,2371.281 1061.044,2355.907C1049.795,2351.328 1038.545,2346.75 1027.295,2342.173L1019.01,2338.802C982.286,2323.86 945.525,2309.019 908.694,2294.339C856.704,2273.626 804.87,2252.568 753.125,2231.25C684.407,2202.938 615.453,2175.239 546.401,2147.753C506.982,2132.063 467.528,2116.465 428.409,2100.038L419.401,2096.24C408.587,2091.693 397.775,2087.142 386.979,2082.552C359.449,2070.621 334.515,2058.999 304.167,2058.333Z" style="fill:white;"/>
            </g>
            <g>
                <path d="M1278.327,1079.389C1284.055,1080.795 1289.589,1082.33 1294.954,1084.016C1299.341,1085.395 1301.784,1090.077 1300.406,1094.465C1299.027,1098.853 1294.346,1101.296 1289.958,1099.918C1284.924,1098.335 1279.73,1096.896 1274.355,1095.577C1264.324,1093.115 1253.667,1091.073 1242.241,1089.311C1237.696,1088.61 1234.575,1084.35 1235.276,1079.804C1235.977,1075.258 1240.236,1072.136 1244.781,1072.838C1256.717,1074.679 1267.848,1076.817 1278.327,1079.389ZM1356.741,1115.837C1358.879,1117.495 1361.001,1119.211 1363.11,1120.989C1365.461,1122.97 1367.767,1124.992 1370.029,1127.053C1373.429,1130.151 1373.674,1135.426 1370.577,1138.826C1367.48,1142.227 1362.205,1142.472 1358.805,1139.374C1356.702,1137.457 1354.557,1135.577 1352.371,1133.734C1350.437,1132.105 1348.492,1130.531 1346.531,1129.011C1337.926,1122.34 1329.039,1116.711 1319.653,1111.923C1315.556,1109.832 1313.927,1104.809 1316.017,1100.712C1318.107,1096.614 1323.129,1094.985 1327.226,1097.075C1337.532,1102.333 1347.292,1108.512 1356.741,1115.837ZM1413.968,1180.299C1416.988,1185.206 1419.843,1190.212 1422.532,1195.308C1424.679,1199.375 1423.12,1204.421 1419.053,1206.568C1414.986,1208.715 1409.941,1207.156 1407.794,1203.089C1405.276,1198.318 1402.604,1193.631 1399.776,1189.037C1394.136,1179.874 1387.881,1171.083 1381.018,1162.748C1378.094,1159.198 1378.602,1153.941 1382.152,1151.017C1385.702,1148.093 1390.958,1148.601 1393.882,1152.152C1401.231,1161.076 1407.929,1170.488 1413.968,1180.299ZM1446.71,1259.758C1448.049,1265.34 1449.22,1270.966 1450.224,1276.625C1451.027,1281.154 1448.002,1285.483 1443.474,1286.286C1438.946,1287.089 1434.618,1284.065 1433.815,1279.536C1432.869,1274.204 1431.766,1268.904 1430.504,1263.646C1427.978,1253.115 1424.82,1242.751 1421.036,1232.636C1419.424,1228.328 1421.613,1223.522 1425.92,1221.91C1430.227,1220.298 1435.033,1222.487 1436.644,1226.795C1440.667,1237.547 1444.025,1248.564 1446.71,1259.758ZM1437.504,1344.234C1438.17,1333.426 1438.191,1322.579 1437.575,1311.776C1437.313,1307.184 1440.829,1303.243 1445.42,1302.981C1450.011,1302.719 1453.952,1306.234 1454.214,1310.827C1454.867,1322.287 1454.844,1333.794 1454.138,1345.259C1453.785,1350.992 1453.261,1356.715 1452.565,1362.417C1452.008,1366.983 1447.85,1370.237 1443.285,1369.68C1438.72,1369.123 1435.466,1364.964 1436.023,1360.398C1436.678,1355.026 1437.172,1349.635 1437.504,1344.234ZM1420.369,1423.161C1424.285,1413.083 1427.541,1402.765 1430.147,1392.287C1431.257,1387.823 1435.781,1385.101 1440.244,1386.211C1444.707,1387.321 1447.429,1391.846 1446.319,1396.31C1443.544,1407.471 1440.074,1418.463 1435.902,1429.199C1433.818,1434.563 1431.559,1439.863 1429.124,1445.089C1427.181,1449.258 1422.22,1451.065 1418.051,1449.122C1413.883,1447.179 1412.076,1442.217 1414.019,1438.047C1416.3,1433.152 1418.416,1428.187 1420.369,1423.161ZM1378.847,1491.801C1386.274,1483.49 1392.868,1474.995 1398.445,1466.346C1400.937,1462.48 1406.098,1461.366 1409.963,1463.858C1413.828,1466.351 1414.943,1471.513 1412.45,1475.379C1406.422,1484.73 1399.303,1493.923 1391.272,1502.909C1387.511,1507.118 1383.549,1511.282 1379.406,1515.396C1376.143,1518.637 1370.863,1518.618 1367.622,1515.354C1364.382,1512.09 1364.401,1506.809 1367.664,1503.568C1371.568,1499.691 1375.302,1495.767 1378.847,1491.801ZM1317.21,1545.259C1326.31,1538.843 1335.071,1532.215 1343.374,1525.402C1346.93,1522.484 1352.185,1523.003 1355.102,1526.559C1358.019,1530.115 1357.5,1535.37 1353.945,1538.288C1345.333,1545.354 1336.249,1552.229 1326.812,1558.882C1322.212,1562.125 1317.528,1565.316 1312.774,1568.451C1308.934,1570.983 1303.762,1569.921 1301.23,1566.081C1298.699,1562.241 1299.761,1557.068 1303.6,1554.536C1308.209,1551.496 1312.751,1548.403 1317.21,1545.259ZM1246.597,1587.867C1256.34,1582.8 1266.026,1577.477 1275.551,1571.92C1279.523,1569.603 1284.63,1570.947 1286.947,1574.92C1289.264,1578.894 1287.919,1584.001 1283.947,1586.318C1274.189,1592.01 1264.267,1597.464 1254.286,1602.655C1249.264,1605.268 1244.226,1607.814 1239.186,1610.29C1235.059,1612.319 1230.061,1610.614 1228.033,1606.486C1226.005,1602.358 1227.709,1597.359 1231.837,1595.331C1236.763,1592.91 1241.688,1590.421 1246.597,1587.867ZM1171.424,1623.87C1181.319,1619.163 1191.574,1614.396 1201.764,1609.63C1205.93,1607.682 1210.894,1609.483 1212.842,1613.649C1214.79,1617.816 1212.989,1622.781 1208.823,1624.729C1198.666,1629.479 1188.445,1634.23 1178.581,1638.922C1173.477,1641.35 1168.468,1643.762 1163.615,1646.15C1159.488,1648.18 1154.49,1646.477 1152.46,1642.35C1150.43,1638.222 1152.132,1633.223 1156.259,1631.193C1161.177,1628.774 1166.251,1626.33 1171.424,1623.87ZM1097.694,1666.376C1101.716,1663.369 1105.854,1660.332 1110.115,1657.249C1114.652,1653.964 1120.066,1650.542 1126.157,1647.023C1130.139,1644.722 1135.24,1646.088 1137.54,1650.071C1139.841,1654.054 1138.475,1659.156 1134.493,1661.456C1128.949,1664.659 1124.015,1667.762 1119.885,1670.751C1115.696,1673.784 1111.627,1676.77 1107.672,1679.726C1103.153,1683.105 1098.783,1686.445 1094.557,1689.774C1090.943,1692.619 1085.7,1691.996 1082.855,1688.382C1080.01,1684.768 1080.634,1679.524 1084.247,1676.678C1088.581,1673.265 1093.06,1669.84 1097.694,1666.376ZM1034.408,1723.688C1041.748,1714.949 1049.658,1706.748 1058.234,1698.778C1061.603,1695.647 1066.88,1695.841 1070.01,1699.211C1073.141,1702.581 1072.947,1707.859 1069.577,1710.989C1061.513,1718.483 1054.071,1726.191 1047.169,1734.409C1043.726,1738.508 1040.417,1742.735 1037.233,1747.124C1034.532,1750.847 1029.317,1751.677 1025.595,1748.975C1021.873,1746.274 1021.043,1741.058 1023.744,1737.335C1027.162,1732.624 1030.713,1728.088 1034.408,1723.688ZM992.359,1798.979C996.128,1787.676 1000.486,1776.786 1005.463,1766.91C1007.533,1762.803 1012.548,1761.149 1016.654,1763.219C1020.761,1765.29 1022.415,1770.305 1020.345,1774.412C1015.714,1783.6 1011.674,1793.737 1008.168,1804.252C1006.457,1809.384 1004.874,1814.607 1003.413,1819.855C1002.179,1824.286 997.581,1826.882 993.15,1825.648C988.72,1824.415 986.125,1819.816 987.358,1815.385C988.894,1809.866 990.56,1804.376 992.359,1798.979ZM974.377,1882.308C975.547,1872.155 977.265,1860.666 979.59,1848.619C980.462,1844.103 984.835,1841.144 989.351,1842.015C993.866,1842.887 996.825,1847.261 995.953,1851.778C993.715,1863.378 992.059,1874.441 990.933,1884.217C990.619,1886.935 990.347,1889.553 990.114,1892.055C989.855,1894.849 989.644,1897.635 989.483,1900.411C989.215,1905.003 985.271,1908.513 980.679,1908.246C976.088,1907.978 972.578,1904.033 972.846,1899.441C973.018,1896.475 973.243,1893.498 973.521,1890.512C973.764,1887.893 974.049,1885.153 974.377,1882.308ZM994.439,1964.696C995.582,1969.987 996.899,1975.216 998.382,1980.376C999.653,1984.796 997.096,1989.417 992.677,1990.688C988.257,1991.96 983.637,1989.403 982.366,1984.982C980.779,1979.464 979.371,1973.873 978.15,1968.213C975.741,1957.057 974.057,1945.639 973.162,1934.005C972.809,1929.419 976.245,1925.409 980.83,1925.056C985.415,1924.702 989.425,1928.139 989.778,1932.725C990.615,1943.598 992.189,1954.269 994.439,1964.696ZM1024.229,2039.542C1027.018,2044.179 1029.949,2048.719 1033.015,2053.155C1035.629,2056.939 1034.681,2062.134 1030.898,2064.75C1027.114,2067.365 1021.92,2066.416 1019.305,2062.632C1016.04,2057.907 1012.918,2053.072 1009.948,2048.133C1004.038,2038.306 998.731,2028.069 994.095,2017.474C992.252,2013.26 994.176,2008.342 998.389,2006.498C1002.602,2004.654 1007.519,2006.578 1009.363,2010.792C1013.71,2020.727 1018.687,2030.327 1024.229,2039.542ZM1076.122,2101.387C1080.2,2104.946 1084.383,2108.373 1088.661,2111.66C1092.308,2114.463 1092.993,2119.699 1090.191,2123.347C1087.389,2126.994 1082.154,2127.68 1078.507,2124.877C1073.956,2121.38 1069.505,2117.734 1065.166,2113.947C1056.53,2106.412 1048.331,2098.317 1040.643,2089.718C1037.578,2086.29 1037.872,2081.017 1041.301,2077.951C1044.729,2074.885 1050.001,2075.179 1053.067,2078.608C1060.294,2086.693 1068.002,2094.303 1076.122,2101.387ZM1144.46,2144.207C1146.947,2145.252 1149.449,2146.253 1151.965,2147.211C1152.126,2147.273 1152.286,2147.34 1152.444,2147.411C1155.128,2148.629 1157.804,2149.803 1160.471,2150.934C1164.706,2152.728 1166.687,2157.623 1164.893,2161.859C1163.099,2166.094 1158.204,2168.075 1153.97,2166.281C1151.252,2165.129 1148.526,2163.935 1145.801,2162.699C1143.189,2161.702 1140.591,2160.66 1138.008,2159.575C1127.428,2155.132 1117.107,2149.966 1107.124,2144.133C1103.153,2141.813 1101.813,2136.705 1104.132,2132.733C1106.452,2128.761 1111.559,2127.421 1115.53,2129.741C1124.882,2135.204 1134.55,2140.045 1144.46,2144.207ZM1227.358,2171.197C1233.148,2172.284 1238.911,2173.203 1244.648,2173.968C1249.207,2174.576 1252.415,2178.771 1251.807,2183.33C1251.199,2187.89 1247.005,2191.098 1242.446,2190.49C1236.419,2189.686 1230.366,2188.721 1224.284,2187.579C1212.49,2185.365 1200.584,2182.487 1188.539,2178.832C1184.138,2177.496 1181.649,2172.838 1182.985,2168.437C1184.32,2164.035 1188.977,2161.546 1193.378,2162.882C1204.828,2166.356 1216.146,2169.093 1227.358,2171.197ZM1314.848,2176.644C1318.456,2176.484 1322.059,2176.285 1325.66,2176.053C1327.929,2175.906 1330.196,2175.74 1332.459,2175.555C1337.043,2175.181 1341.068,2178.599 1341.443,2183.183C1341.817,2187.768 1338.4,2191.794 1333.816,2192.168C1331.458,2192.361 1329.098,2192.533 1326.734,2192.686C1323.022,2192.926 1319.307,2193.13 1315.588,2193.296C1303.453,2193.835 1291.277,2193.956 1279.026,2193.524C1274.43,2193.362 1270.83,2189.498 1270.992,2184.901C1271.154,2180.304 1275.017,2176.704 1279.613,2176.866C1291.42,2177.283 1303.154,2177.164 1314.848,2176.644ZM1401.669,2163.623C1407.321,2162.115 1412.947,2160.478 1418.545,2158.71C1422.931,2157.325 1427.615,2159.762 1429,2164.149C1430.384,2168.535 1427.948,2173.22 1423.562,2174.605C1417.724,2176.448 1411.858,2178.156 1405.964,2179.728C1394.136,2182.884 1382.199,2185.496 1370.165,2187.569C1365.632,2188.349 1361.319,2185.303 1360.539,2180.77C1359.759,2176.237 1362.805,2171.923 1367.337,2171.142C1378.878,2169.155 1390.326,2166.65 1401.669,2163.623ZM1483.411,2131.7C1488.584,2128.995 1493.727,2126.168 1498.837,2123.218C1502.819,2120.919 1507.92,2122.286 1510.219,2126.269C1512.518,2130.253 1511.151,2135.354 1507.169,2137.653C1501.856,2140.721 1496.509,2143.66 1491.129,2146.472C1480.208,2152.181 1469.152,2157.363 1457.974,2162.022C1453.729,2163.792 1448.846,2161.782 1447.077,2157.536C1445.308,2153.29 1447.318,2148.407 1451.563,2146.637C1462.3,2142.161 1472.919,2137.183 1483.411,2131.7ZM1556.832,2083.232C1559.11,2081.388 1561.38,2079.517 1563.642,2077.618C1567.164,2074.66 1572.424,2075.118 1575.381,2078.641C1578.339,2082.163 1577.88,2087.425 1574.358,2090.382C1572.019,2092.347 1569.671,2094.283 1567.314,2096.19C1557.707,2103.964 1547.956,2111.263 1538.07,2118.09C1534.286,2120.704 1529.092,2119.753 1526.479,2115.968C1523.866,2112.183 1524.817,2106.988 1528.601,2104.374C1538.144,2097.784 1547.557,2090.737 1556.832,2083.232ZM1201.185,1084.294C1196.608,1083.844 1193.258,1079.763 1193.707,1075.185C1194.157,1070.608 1198.238,1067.256 1202.815,1067.706C1205.65,1067.984 1208.444,1068.269 1211.199,1068.561C1215.772,1069.045 1219.092,1073.152 1218.608,1077.726C1218.124,1082.3 1214.018,1085.62 1209.444,1085.136C1206.731,1084.849 1203.978,1084.569 1201.185,1084.294Z" style="fill:rgb(255,230,0);fill-opacity:0.68;"/>
                <path d="M1595,2025C1578.863,1983.043 1570.359,1942.063 1562.797,1908.163C1560.433,1897.563 1558.341,1888.397 1556.488,1878.609C1555.217,1871.901 1553.488,1849.565 1553.085,1844.468C1548.116,1781.62 1579.07,1729.252 1650,1700C1725.394,1684.148 1781.058,1709.217 1816,1774C1828.95,1797.268 1833.434,1836.871 1821.505,1869.487C1811.718,1896.248 1794.009,1915.785 1779,1932C1761.859,1950.518 1708.027,1987.661 1628,2033C1614.893,2039.49 1599.846,2037.6 1595,2025ZM1688,1760C1649.918,1760 1619,1791.142 1619,1829.5C1619,1867.858 1649.918,1899 1688,1899C1726.082,1899 1757,1867.858 1757,1829.5C1757,1791.142 1726.082,1760 1688,1760Z" style="fill:rgb(255,230,0);"/>
                <path d="M2137,2862L2179,2915L2211,2857L2179,2915L2242,2928L2179,2915L2182,2977L2179,2915L2116,2935" style="fill:none;stroke:rgb(255,230,0);stroke-width:33.33px;"/>
            </g>
        </g>
    </g>
</svg>
